<svg preserveAspectRatio="none" overflow="visible" style="display: block;" width="97.6506" height="88.8949" viewBox="0 0 97.6506 88.8949" fill="none" xmlns="http://www.w3.org/2000/svg">
<g id="Mascot/&#231;&#140;&#171;&#229;&#144;&#145;&#229;&#175;&#188;&#194;&#183;&#232;&#146;&#153;&#231;&#156;&#188;">
<path id="Polygon" d="M29.1777 26.3512L12.9121 22.8939L24.0391 10.5359L29.1777 26.3512Z" fill="white" stroke="#0A0A0B" stroke-width="2.4"/>
<path id="Polygon_2" d="M82.5634 14.704L66.2979 18.1614L71.4364 2.34603L82.5634 14.704Z" fill="white" stroke="#0A0A0B" stroke-width="2.4"/>
<path id="Ellipse" d="M47.9998 16.6953C67.7408 16.6953 83.4002 30.5724 83.4002 47.2949C83.4002 64.0175 67.7408 77.8946 47.9998 77.8946C28.2589 77.8945 12.6004 64.0175 12.6004 47.2949C12.6004 30.5724 28.2589 16.6954 47.9998 16.6953Z" fill="white" stroke="#0A0A0B" stroke-width="2.8"/>
<rect id="Rectangle" x="25.6" y="74.4949" width="44.8" height="8" rx="4" fill="#FF3B30"/>
<rect id="Rectangle_2" x="14.4" y="36.0949" width="67.2" height="14.4" rx="7.2" fill="#0A0A0B"/>
<path id="Polygon_3" d="M78.4 32.0949L86.8 27.2452V36.9447L78.4 32.0949Z" fill="#0A0A0B"/>
<path id="Polygon_4" d="M40 52.0949L36.5359 47.2949H43.4641L40 52.0949Z" fill="#FF3B30"/>
<rect id="Rectangle_3" x="6.4" y="47.2949" width="14.4" height="2" rx="0.8" transform="rotate(-8 6.4 47.2949)" fill="#0A0A0B"/>
<rect id="Rectangle_4" x="6.4" y="55.2949" width="14.4" height="2" rx="0.8" transform="rotate(4 6.4 55.2949)" fill="#0A0A0B"/>
<rect id="Rectangle_5" x="83.2" y="47.2949" width="14.4" height="2" rx="0.8" transform="rotate(8 83.2 47.2949)" fill="#0A0A0B"/>
<rect id="Rectangle_6" x="83.2" y="55.2949" width="14.4" height="2" rx="0.8" transform="rotate(-4 83.2 55.2949)" fill="#0A0A0B"/>
</g>
</svg>
