<svg width="100%" height="100%" overflow="visible" style="display: block;" viewBox="0 0 12.6707 14.0431" fill="none" xmlns="http://www.w3.org/2000/svg">
<path id="Vector" d="M8.39398 2.90434L6.33536 0.845722L4.27675 2.90434M6.33536 0.845722V7.70777M2.9045 5.64916C2.26503 5.64916 1.9453 5.64916 1.69309 5.75362C1.35681 5.89291 1.08948 6.16025 0.950192 6.49652C0.845724 6.74873 0.845724 7.06831 0.845724 7.70777V11.0016C0.845724 11.7702 0.845724 12.1542 0.995308 12.4478C1.12689 12.706 1.33668 12.9164 1.59492 13.048C1.88821 13.1974 2.27234 13.1974 3.03946 13.1974H9.6316C10.3987 13.1974 10.7823 13.1974 11.0756 13.048C11.3338 12.9164 11.544 12.706 11.6756 12.4478C11.825 12.1545 11.825 11.7708 11.825 11.0037V7.70777C11.825 7.06831 11.8249 6.74873 11.7205 6.49652C11.5812 6.16025 11.3141 5.89291 10.9778 5.75362C10.7256 5.64916 10.4058 5.64916 9.76639 5.64916" stroke="#375476" stroke-width="1.69144" stroke-linecap="round" stroke-linejoin="round"/>
</svg>
